<svg width="685" height="685" viewBox="0 0 685 685" fill="none" xmlns="http://www.w3.org/2000/svg">
<path fill-rule="evenodd" clip-rule="evenodd" d="M107.031 96.3281H631.484V160.547H107.031V96.3281Z" fill="#3E4F59"/>
<path fill-rule="evenodd" clip-rule="evenodd" d="M107.031 160.547H631.484V588.672H107.031V160.547Z" fill="#ACBEC2"/>
<path fill-rule="evenodd" clip-rule="evenodd" d="M107.031 160.547V588.672H425.658C487.472 532.886 539.168 462.805 574.533 386.855C609.897 310.904 627.423 232.319 625.004 160.547H107.031Z" fill="#E8EDEE"/>
<path fill-rule="evenodd" clip-rule="evenodd" d="M128.438 85.625C110.831 85.625 96.3281 100.128 96.3281 117.734V545.859C96.3281 551.771 101.12 556.562 107.031 556.562C112.942 556.562 117.734 551.771 117.734 545.859V117.734C117.734 111.696 122.4 107.031 128.438 107.031H610.078C616.116 107.031 620.781 111.696 620.781 117.734V149.844H171.25C165.339 149.844 160.547 154.636 160.547 160.547C160.547 166.458 165.339 171.25 171.25 171.25H620.781V567.266C620.781 573.304 616.116 577.969 610.078 577.969H85.625C79.7139 577.969 74.9219 582.761 74.9219 588.672C74.9219 594.583 79.7139 599.375 85.625 599.375H610.078C627.685 599.375 642.188 584.872 642.188 567.266C642.188 417.422 642.188 267.578 642.188 117.734C642.188 100.128 627.685 85.625 610.078 85.625H128.438Z" fill="black"/>
<path fill-rule="evenodd" clip-rule="evenodd" d="M588.672 117.734C582.761 117.734 577.969 122.526 577.969 128.438C577.969 134.349 582.761 139.141 588.672 139.141C594.583 139.141 599.375 134.349 599.375 128.438C599.375 122.526 594.583 117.734 588.672 117.734Z" fill="#ED7161"/>
<path fill-rule="evenodd" clip-rule="evenodd" d="M545.859 117.734C539.948 117.734 535.156 122.526 535.156 128.438C535.156 134.349 539.948 139.141 545.859 139.141C551.771 139.141 556.562 134.349 556.562 128.438C556.562 122.526 551.771 117.734 545.859 117.734Z" fill="#ECBA16"/>
<path fill-rule="evenodd" clip-rule="evenodd" d="M503.047 117.734C497.136 117.734 492.344 122.526 492.344 128.438C492.344 134.349 497.136 139.141 503.047 139.141C508.958 139.141 513.75 134.349 513.75 128.438C513.75 122.526 508.958 117.734 503.047 117.734Z" fill="#42B05C"/>
<path fill-rule="evenodd" clip-rule="evenodd" d="M53.5156 577.969C50.677 577.969 47.9544 579.096 45.9472 581.104C43.94 583.111 42.8125 585.833 42.8125 588.672C42.8125 591.511 43.94 594.233 45.9472 596.24C47.9544 598.247 50.677 599.375 53.5156 599.375C56.3543 599.375 59.0765 598.247 61.0837 596.24C63.0909 594.233 64.2188 591.511 64.2188 588.672C64.2188 585.833 63.0909 583.111 61.0837 581.104C59.0765 579.096 56.3543 577.969 53.5156 577.969Z" fill="black"/>
<path fill-rule="evenodd" clip-rule="evenodd" d="M139.141 149.844C133.23 149.844 128.438 154.636 128.438 160.547C128.438 166.458 133.23 171.25 139.141 171.25C145.052 171.25 149.844 166.458 149.844 160.547C149.844 154.636 145.052 149.844 139.141 149.844Z" fill="black"/>
<path d="M503.047 256.875H235.469C223.646 256.875 214.062 266.459 214.062 278.281V470.938C214.062 482.76 223.646 492.344 235.469 492.344H503.047C514.869 492.344 524.453 482.76 524.453 470.938V278.281C524.453 266.459 514.869 256.875 503.047 256.875Z" fill="#0075D3"/>
<path fill-rule="evenodd" clip-rule="evenodd" d="M235.469 256.875C223.61 256.875 214.062 266.422 214.062 278.281V470.938C214.062 482.797 223.61 492.344 235.469 492.344H445.079C477.078 460.628 494.676 420.273 494.706 378.539C494.692 333.149 473.903 289.534 436.717 256.875H235.469Z" fill="#0588E2"/>
<path d="M524.453 256.875H214.062V321.094H524.453V256.875Z" fill="#FE73C5"/>
<path fill-rule="evenodd" clip-rule="evenodd" d="M214.062 256.875V321.094H477.251C477.987 317.543 478.378 313.969 478.421 310.391C478.417 291.16 468.376 272.425 449.74 256.875H214.062Z" fill="#FE93D3"/>
<path fill-rule="evenodd" clip-rule="evenodd" d="M235.469 246.172C217.865 246.172 203.359 260.678 203.359 278.281C203.359 299.388 203.359 320.494 203.359 341.601C203.359 347.512 208.151 352.304 214.062 352.304C219.974 352.304 224.766 347.512 224.766 341.601V331.797H513.75V396.016C513.75 401.927 518.542 406.719 524.453 406.719C530.364 406.719 535.156 401.927 535.156 396.016C535.156 356.771 535.156 317.526 535.156 278.281C535.156 260.678 520.65 246.172 503.047 246.172H235.469ZM235.469 267.578H503.047C509.162 267.578 513.75 272.167 513.75 278.281V310.391H224.766V278.281C224.766 272.167 229.354 267.578 235.469 267.578ZM214.062 374.609C208.151 374.609 203.359 379.401 203.359 385.312V470.938C203.359 488.541 217.865 503.047 235.469 503.047H503.047C520.65 503.047 535.156 488.541 535.156 470.938V438.828C535.156 432.917 530.364 428.125 524.453 428.125C518.542 428.125 513.75 432.917 513.75 438.828V470.938C513.75 477.052 509.162 481.641 503.047 481.641H235.469C229.354 481.641 224.766 477.052 224.766 470.938V385.312C224.766 379.401 219.974 374.609 214.062 374.609Z" fill="black"/>
<path fill-rule="evenodd" clip-rule="evenodd" d="M277.591 353.224C272.755 353.538 268.733 357.063 267.787 361.816L257.084 415.332C255.767 421.951 260.829 428.123 267.578 428.125H299.688V449.531C299.688 455.443 304.48 460.235 310.391 460.235C316.302 460.235 321.094 455.443 321.094 449.531C321.094 431.693 321.094 413.854 321.094 396.016C321.094 390.105 316.302 385.313 310.391 385.313C304.48 385.313 299.688 390.105 299.688 396.016V406.719H280.623L288.775 365.997C289.928 360.202 286.167 354.568 280.372 353.412C279.458 353.228 278.522 353.165 277.591 353.224Z" fill="black"/>
<path fill-rule="evenodd" clip-rule="evenodd" d="M374.609 363.906C386.469 363.906 396.016 373.453 396.016 385.313V417.422C396.016 429.281 386.469 438.828 374.609 438.828C362.75 438.828 353.203 429.281 353.203 417.422V385.313C353.203 373.453 362.75 363.906 374.609 363.906Z" fill="#FFC343"/>
<path fill-rule="evenodd" clip-rule="evenodd" d="M374.609 353.203C357.006 353.203 342.5 367.709 342.5 385.312V417.422C342.5 435.025 357.006 449.531 374.609 449.531C392.213 449.531 406.719 435.025 406.719 417.422V385.312C406.719 382.474 405.591 379.751 403.584 377.744C401.576 375.737 398.854 374.609 396.016 374.609C393.177 374.609 390.455 375.737 388.448 377.744C386.44 379.751 385.312 382.474 385.312 385.312V417.422C385.312 423.537 380.724 428.125 374.609 428.125C368.495 428.125 363.906 423.537 363.906 417.422V385.312C363.906 379.198 368.495 374.609 374.609 374.609C377.448 374.609 380.17 373.482 382.177 371.475C384.185 369.467 385.312 366.745 385.312 363.906C385.312 361.068 384.185 358.345 382.177 356.338C380.17 354.331 377.448 353.203 374.609 353.203Z" fill="black"/>
<path fill-rule="evenodd" clip-rule="evenodd" d="M448.841 353.224C444.005 353.538 439.983 357.063 439.037 361.816L428.334 415.332C427.017 421.951 432.079 428.123 438.828 428.125H470.938V449.531C470.938 455.443 475.73 460.235 481.641 460.235C487.552 460.235 492.344 455.443 492.344 449.531C492.344 431.693 492.344 413.854 492.344 396.016C492.344 390.105 487.552 385.313 481.641 385.313C475.73 385.313 470.938 390.105 470.938 396.016V406.719H451.873L460.025 365.997C461.178 360.202 457.417 354.568 451.622 353.412C450.708 353.228 449.772 353.165 448.841 353.224Z" fill="black"/>
</svg>
