<svg width="358" height="358" viewBox="0 0 358 358" fill="none" xmlns="http://www.w3.org/2000/svg">
<path fill-rule="evenodd" clip-rule="evenodd" d="M55.9375 50.3438H330.031V83.9062H55.9375V50.3438Z" fill="#3E4F59"/>
<path fill-rule="evenodd" clip-rule="evenodd" d="M55.9375 83.9062H330.031V307.656H55.9375V83.9062Z" fill="#ACBEC2"/>
<path fill-rule="evenodd" clip-rule="evenodd" d="M55.9375 83.9062V307.656H222.461C254.766 278.501 281.784 241.875 300.267 202.181C318.749 162.487 327.909 121.416 326.644 83.9062H55.9375Z" fill="#E8EDEE"/>
<path fill-rule="evenodd" clip-rule="evenodd" d="M67.125 44.75C57.9232 44.75 50.3438 52.3295 50.3438 61.5312V285.281C50.3438 288.371 52.8482 290.875 55.9375 290.875C59.0269 290.875 61.5312 288.371 61.5312 285.281V61.5312C61.5312 58.3756 63.9694 55.9375 67.125 55.9375H318.844C321.999 55.9375 324.438 58.3756 324.438 61.5312V78.3125H89.5C86.4107 78.3125 83.9062 80.8169 83.9062 83.9062C83.9062 86.9956 86.4107 89.5 89.5 89.5H324.438V296.469C324.438 299.624 321.999 302.062 318.844 302.062H44.75C41.6607 302.062 39.1562 304.567 39.1562 307.656C39.1562 310.746 41.6607 313.25 44.75 313.25H318.844C328.046 313.25 335.625 305.671 335.625 296.469C335.625 218.156 335.625 139.844 335.625 61.5312C335.625 52.3295 328.046 44.75 318.844 44.75H67.125Z" fill="black"/>
<path fill-rule="evenodd" clip-rule="evenodd" d="M307.656 61.5312C304.567 61.5312 302.062 64.0357 302.062 67.125C302.062 70.2144 304.567 72.7188 307.656 72.7188C310.746 72.7188 313.25 70.2144 313.25 67.125C313.25 64.0357 310.746 61.5312 307.656 61.5312Z" fill="#ED7161"/>
<path fill-rule="evenodd" clip-rule="evenodd" d="M285.281 61.5312C282.192 61.5312 279.688 64.0357 279.688 67.125C279.688 70.2144 282.192 72.7188 285.281 72.7188C288.371 72.7188 290.875 70.2144 290.875 67.125C290.875 64.0357 288.371 61.5312 285.281 61.5312Z" fill="#ECBA16"/>
<path fill-rule="evenodd" clip-rule="evenodd" d="M262.906 61.5312C259.817 61.5312 257.312 64.0357 257.312 67.125C257.312 70.2144 259.817 72.7188 262.906 72.7188C265.996 72.7188 268.5 70.2144 268.5 67.125C268.5 64.0357 265.996 61.5312 262.906 61.5312Z" fill="#42B05C"/>
<path fill-rule="evenodd" clip-rule="evenodd" d="M27.9688 302.062C26.4852 302.062 25.0623 302.652 24.0133 303.701C22.9643 304.75 22.375 306.173 22.375 307.656C22.375 309.14 22.9643 310.563 24.0133 311.612C25.0623 312.661 26.4852 313.25 27.9688 313.25C29.4523 313.25 30.875 312.661 31.924 311.612C32.9731 310.563 33.5625 309.14 33.5625 307.656C33.5625 306.173 32.9731 304.75 31.924 303.701C30.875 302.652 29.4523 302.062 27.9688 302.062Z" fill="black"/>
<path fill-rule="evenodd" clip-rule="evenodd" d="M72.7188 78.3125C69.6294 78.3125 67.125 80.8169 67.125 83.9062C67.125 86.9956 69.6294 89.5 72.7188 89.5C75.8081 89.5 78.3125 86.9956 78.3125 83.9062C78.3125 80.8169 75.8081 78.3125 72.7188 78.3125Z" fill="black"/>
<path d="M262.906 134.25H123.062C116.884 134.25 111.875 139.259 111.875 145.438V246.125C111.875 252.304 116.884 257.312 123.062 257.312H262.906C269.085 257.312 274.094 252.304 274.094 246.125V145.438C274.094 139.259 269.085 134.25 262.906 134.25Z" fill="#0075D3"/>
<path fill-rule="evenodd" clip-rule="evenodd" d="M123.062 134.25C116.865 134.25 111.875 139.24 111.875 145.438V246.125C111.875 252.323 116.865 257.312 123.062 257.312H232.61C249.334 240.737 258.531 219.646 258.547 197.835C258.54 174.113 247.675 151.319 228.24 134.25H123.062Z" fill="#0588E2"/>
<path d="M274.094 134.25H111.875V167.812H274.094V134.25Z" fill="#FE73C5"/>
<path fill-rule="evenodd" clip-rule="evenodd" d="M111.875 134.25V167.812H249.424C249.809 165.957 250.014 164.089 250.036 162.219C250.034 152.168 244.786 142.377 235.047 134.25H111.875Z" fill="#FE93D3"/>
<path fill-rule="evenodd" clip-rule="evenodd" d="M123.062 128.656C113.862 128.656 106.281 136.237 106.281 145.438C106.281 156.468 106.281 167.499 106.281 178.53C106.281 181.62 108.786 184.124 111.875 184.124C114.964 184.124 117.469 181.62 117.469 178.53V173.406H268.5V206.969C268.5 210.058 271.004 212.562 274.094 212.562C277.183 212.562 279.688 210.058 279.688 206.969C279.688 186.458 279.688 165.948 279.688 145.438C279.688 136.237 272.106 128.656 262.906 128.656H123.062ZM123.062 139.844H262.906C266.102 139.844 268.5 142.242 268.5 145.438V162.219H117.469V145.438C117.469 142.242 119.867 139.844 123.062 139.844ZM111.875 195.781C108.786 195.781 106.281 198.286 106.281 201.375V246.125C106.281 255.325 113.862 262.906 123.062 262.906H262.906C272.106 262.906 279.688 255.325 279.688 246.125V229.344C279.688 226.254 277.183 223.75 274.094 223.75C271.004 223.75 268.5 226.254 268.5 229.344V246.125C268.5 249.321 266.102 251.719 262.906 251.719H123.062C119.867 251.719 117.469 249.321 117.469 246.125V201.375C117.469 198.286 114.964 195.781 111.875 195.781Z" fill="black"/>
<path fill-rule="evenodd" clip-rule="evenodd" d="M145.077 184.605C142.549 184.769 140.447 186.611 139.953 189.095L134.359 217.064C133.671 220.523 136.317 223.749 139.844 223.75H156.625V234.938C156.625 238.027 159.129 240.531 162.219 240.531C165.308 240.531 167.813 238.027 167.813 234.938C167.813 225.615 167.813 216.292 167.813 206.969C167.813 203.879 165.308 201.375 162.219 201.375C159.129 201.375 156.625 203.879 156.625 206.969V212.563H146.661L150.922 191.28C151.525 188.251 149.559 185.307 146.53 184.703C146.052 184.607 145.564 184.574 145.077 184.605Z" fill="black"/>
<path fill-rule="evenodd" clip-rule="evenodd" d="M195.781 190.188C201.979 190.188 206.969 195.177 206.969 201.375V218.156C206.969 224.354 201.979 229.344 195.781 229.344C189.583 229.344 184.594 224.354 184.594 218.156V201.375C184.594 195.177 189.583 190.188 195.781 190.188Z" fill="#FFC343"/>
<path fill-rule="evenodd" clip-rule="evenodd" d="M195.781 184.594C186.581 184.594 179 192.175 179 201.375V218.156C179 227.356 186.581 234.938 195.781 234.938C204.981 234.938 212.562 227.356 212.562 218.156V201.375C212.562 199.891 211.973 198.469 210.924 197.42C209.875 196.371 208.452 195.781 206.969 195.781C205.485 195.781 204.062 196.371 203.013 197.42C201.964 198.469 201.375 199.891 201.375 201.375V218.156C201.375 221.352 198.977 223.75 195.781 223.75C192.585 223.75 190.188 221.352 190.188 218.156V201.375C190.188 198.179 192.585 195.781 195.781 195.781C197.265 195.781 198.688 195.192 199.737 194.143C200.786 193.094 201.375 191.671 201.375 190.188C201.375 188.704 200.786 187.281 199.737 186.232C198.688 185.183 197.265 184.594 195.781 184.594Z" fill="black"/>
<path fill-rule="evenodd" clip-rule="evenodd" d="M234.577 184.605C232.049 184.769 229.947 186.611 229.453 189.095L223.859 217.064C223.171 220.523 225.817 223.749 229.344 223.75H246.125V234.938C246.125 238.027 248.629 240.531 251.719 240.531C254.808 240.531 257.313 238.027 257.313 234.938C257.313 225.615 257.313 216.292 257.313 206.969C257.313 203.879 254.808 201.375 251.719 201.375C248.629 201.375 246.125 203.879 246.125 206.969V212.563H236.161L240.422 191.28C241.025 188.251 239.059 185.307 236.03 184.703C235.552 184.607 235.064 184.574 234.577 184.605Z" fill="black"/>
</svg>
