<svg width="242" height="242" viewBox="0 0 242 242" fill="none" xmlns="http://www.w3.org/2000/svg">
<path fill-rule="evenodd" clip-rule="evenodd" d="M37.8125 34.0312H223.094V56.7188H37.8125V34.0312Z" fill="#3E4F59"/>
<path fill-rule="evenodd" clip-rule="evenodd" d="M37.8125 56.7188H223.094V207.969H37.8125V56.7188Z" fill="#ACBEC2"/>
<path fill-rule="evenodd" clip-rule="evenodd" d="M37.8125 56.7188V207.969H150.379C172.216 188.26 190.48 163.502 202.974 136.67C215.467 109.838 221.659 82.0746 220.804 56.7188H37.8125Z" fill="#E8EDEE"/>
<path fill-rule="evenodd" clip-rule="evenodd" d="M45.375 30.25C39.1548 30.25 34.0312 35.3736 34.0312 41.5938V192.844C34.0312 194.932 35.7242 196.625 37.8125 196.625C39.9008 196.625 41.5938 194.932 41.5938 192.844V41.5938C41.5938 39.4606 43.2419 37.8125 45.375 37.8125H215.531C217.664 37.8125 219.312 39.4606 219.312 41.5938V52.9375H60.5C58.4117 52.9375 56.7188 54.6304 56.7188 56.7188C56.7188 58.8071 58.4117 60.5 60.5 60.5H219.312V200.406C219.312 202.539 217.664 204.188 215.531 204.188H30.25C28.1617 204.188 26.4688 205.88 26.4688 207.969C26.4688 210.057 28.1617 211.75 30.25 211.75H215.531C221.751 211.75 226.875 206.626 226.875 200.406C226.875 147.469 226.875 94.5312 226.875 41.5938C226.875 35.3736 221.751 30.25 215.531 30.25H45.375Z" fill="black"/>
<path fill-rule="evenodd" clip-rule="evenodd" d="M207.969 41.5938C205.88 41.5938 204.188 43.2867 204.188 45.375C204.188 47.4633 205.88 49.1562 207.969 49.1562C210.057 49.1562 211.75 47.4633 211.75 45.375C211.75 43.2867 210.057 41.5938 207.969 41.5938Z" fill="#ED7161"/>
<path fill-rule="evenodd" clip-rule="evenodd" d="M192.844 41.5938C190.755 41.5938 189.062 43.2867 189.062 45.375C189.062 47.4633 190.755 49.1562 192.844 49.1562C194.932 49.1562 196.625 47.4633 196.625 45.375C196.625 43.2867 194.932 41.5938 192.844 41.5938Z" fill="#ECBA16"/>
<path fill-rule="evenodd" clip-rule="evenodd" d="M177.719 41.5938C175.63 41.5938 173.938 43.2867 173.938 45.375C173.938 47.4633 175.63 49.1562 177.719 49.1562C179.807 49.1562 181.5 47.4633 181.5 45.375C181.5 43.2867 179.807 41.5938 177.719 41.5938Z" fill="#42B05C"/>
<path fill-rule="evenodd" clip-rule="evenodd" d="M18.9062 204.188C17.9034 204.188 16.9416 204.586 16.2324 205.295C15.5233 206.004 15.125 206.966 15.125 207.969C15.125 208.972 15.5233 209.933 16.2324 210.643C16.9416 211.352 17.9034 211.75 18.9062 211.75C19.9091 211.75 20.8708 211.352 21.5799 210.643C22.2891 209.933 22.6875 208.972 22.6875 207.969C22.6875 206.966 22.2891 206.004 21.5799 205.295C20.8708 204.586 19.9091 204.188 18.9062 204.188Z" fill="black"/>
<path fill-rule="evenodd" clip-rule="evenodd" d="M49.1562 52.9375C47.0679 52.9375 45.375 54.6304 45.375 56.7188C45.375 58.8071 47.0679 60.5 49.1562 60.5C51.2446 60.5 52.9375 58.8071 52.9375 56.7188C52.9375 54.6304 51.2446 52.9375 49.1562 52.9375Z" fill="black"/>
<path d="M177.719 90.75H83.1875C79.0108 90.75 75.625 94.1358 75.625 98.3125V166.375C75.625 170.552 79.0108 173.938 83.1875 173.938H177.719C181.895 173.938 185.281 170.552 185.281 166.375V98.3125C185.281 94.1358 181.895 90.75 177.719 90.75Z" fill="#0075D3"/>
<path fill-rule="evenodd" clip-rule="evenodd" d="M83.1875 90.75C78.9979 90.75 75.625 94.1229 75.625 98.3125V166.375C75.625 170.565 78.9979 173.938 83.1875 173.938H157.239C168.544 162.733 174.761 148.476 174.772 133.732C174.767 117.697 167.423 102.288 154.285 90.75H83.1875Z" fill="#0588E2"/>
<path d="M185.281 90.75H75.625V113.438H185.281V90.75Z" fill="#FE73C5"/>
<path fill-rule="evenodd" clip-rule="evenodd" d="M75.625 90.75V113.438H168.605C168.866 112.183 169.004 110.921 169.019 109.656C169.017 102.862 165.47 96.2435 158.886 90.75H75.625Z" fill="#FE93D3"/>
<path fill-rule="evenodd" clip-rule="evenodd" d="M83.1875 86.9688C76.9685 86.9688 71.8438 92.0935 71.8438 98.3125C71.8438 105.769 71.8438 113.226 71.8438 120.682C71.8438 122.771 73.5367 124.464 75.625 124.464C77.7133 124.464 79.4062 122.771 79.4062 120.682V117.219H181.5V139.906C181.5 141.995 183.193 143.688 185.281 143.688C187.37 143.688 189.062 141.995 189.062 139.906C189.062 126.042 189.062 112.177 189.062 98.3125C189.062 92.0935 183.938 86.9688 177.719 86.9688H83.1875ZM83.1875 94.5312H177.719C179.879 94.5312 181.5 96.1523 181.5 98.3125V109.656H79.4062V98.3125C79.4062 96.1523 81.0273 94.5312 83.1875 94.5312ZM75.625 132.344C73.5367 132.344 71.8438 134.037 71.8438 136.125V166.375C71.8438 172.594 76.9685 177.719 83.1875 177.719H177.719C183.938 177.719 189.062 172.594 189.062 166.375V155.031C189.062 152.943 187.37 151.25 185.281 151.25C183.193 151.25 181.5 152.943 181.5 155.031V166.375C181.5 168.535 179.879 170.156 177.719 170.156H83.1875C81.0273 170.156 79.4062 168.535 79.4062 166.375V136.125C79.4062 134.037 77.7133 132.344 75.625 132.344Z" fill="black"/>
<path fill-rule="evenodd" clip-rule="evenodd" d="M98.0689 124.789C96.3603 124.899 94.9394 126.145 94.6053 127.824L90.824 146.73C90.3586 149.069 92.1471 151.249 94.5314 151.25H105.875V158.813C105.875 160.901 107.568 162.594 109.656 162.594C111.745 162.594 113.438 160.901 113.438 158.813C113.438 152.51 113.438 146.208 113.438 139.906C113.438 137.818 111.745 136.125 109.656 136.125C107.568 136.125 105.875 137.818 105.875 139.906V143.688H99.1398L102.02 129.301C102.427 127.254 101.098 125.263 99.0512 124.855C98.7283 124.79 98.3978 124.768 98.0689 124.789Z" fill="black"/>
<path fill-rule="evenodd" clip-rule="evenodd" d="M132.344 128.562C136.534 128.562 139.906 131.935 139.906 136.125V147.469C139.906 151.658 136.534 155.031 132.344 155.031C128.154 155.031 124.781 151.658 124.781 147.469V136.125C124.781 131.935 128.154 128.562 132.344 128.562Z" fill="#FFC343"/>
<path fill-rule="evenodd" clip-rule="evenodd" d="M132.344 124.781C126.125 124.781 121 129.906 121 136.125V147.469C121 153.688 126.125 158.812 132.344 158.812C138.563 158.812 143.688 153.688 143.688 147.469V136.125C143.688 135.122 143.289 134.16 142.58 133.451C141.871 132.742 140.909 132.344 139.906 132.344C138.903 132.344 137.942 132.742 137.233 133.451C136.523 134.16 136.125 135.122 136.125 136.125V147.469C136.125 149.629 134.504 151.25 132.344 151.25C130.183 151.25 128.562 149.629 128.562 147.469V136.125C128.562 133.965 130.183 132.344 132.344 132.344C133.347 132.344 134.308 131.945 135.017 131.236C135.727 130.527 136.125 129.565 136.125 128.562C136.125 127.56 135.727 126.598 135.017 125.889C134.308 125.18 133.347 124.781 132.344 124.781Z" fill="black"/>
<path fill-rule="evenodd" clip-rule="evenodd" d="M158.569 124.789C156.86 124.899 155.439 126.145 155.105 127.824L151.324 146.73C150.859 149.069 152.647 151.249 155.031 151.25H166.375V158.813C166.375 160.901 168.068 162.594 170.156 162.594C172.245 162.594 173.938 160.901 173.938 158.813C173.938 152.51 173.938 146.208 173.938 139.906C173.938 137.818 172.245 136.125 170.156 136.125C168.068 136.125 166.375 137.818 166.375 139.906V143.688H159.64L162.52 129.301C162.927 127.254 161.598 125.263 159.551 124.855C159.228 124.79 158.898 124.768 158.569 124.789Z" fill="black"/>
</svg>
